<?xml version="1.0" encoding="UTF-8" standalone="no"?>
<!-- Created with Inkscape (http://www.inkscape.org/) -->

<svg
   width="800"
   height="800"
   viewBox="0 0 211.66666 211.66666"
   version="1.1"
   id="svg5"
   inkscape:version="1.1 (c4e8f9e, 2021-05-24)"
   sodipodi:docname="drawingAttempt5.svg"
   inkscape:export-filename="/Users/ernesto/pfm_logo.png"
   inkscape:export-xdpi="30.517347"
   inkscape:export-ydpi="30.517347"
   xmlns:inkscape="http://www.inkscape.org/namespaces/inkscape"
   xmlns:sodipodi="http://sodipodi.sourceforge.net/DTD/sodipodi-0.dtd"
   xmlns="http://www.w3.org/2000/svg"
   xmlns:svg="http://www.w3.org/2000/svg">
  <sodipodi:namedview
     id="namedview7"
     pagecolor="#505050"
     bordercolor="#eeeeee"
     borderopacity="1"
     inkscape:pageshadow="0"
     inkscape:pageopacity="0"
     inkscape:pagecheckerboard="0"
     inkscape:document-units="px"
     showgrid="false"
     units="px"
     inkscape:snap-grids="false"
     inkscape:snap-to-guides="false"
     inkscape:zoom="0.42215634"
     inkscape:cx="406.2476"
     inkscape:cy="451.25462"
     inkscape:window-width="1312"
     inkscape:window-height="1003"
     inkscape:window-x="128"
     inkscape:window-y="25"
     inkscape:window-maximized="0"
     inkscape:current-layer="layer1"
     inkscape:object-nodes="false" />
  <defs
     id="defs2">
    <linearGradient
       id="linearGradient35625"
       inkscape:swatch="solid">
      <stop
         style="stop-color:#e57a39;stop-opacity:1;"
         offset="0"
         id="stop35623" />
    </linearGradient>
    <linearGradient
       id="linearGradient28743"
       inkscape:swatch="solid">
      <stop
         style="stop-color:#e57a39;stop-opacity:1;"
         offset="0"
         id="stop28741" />
    </linearGradient>
    <linearGradient
       id="linearGradient31529"
       inkscape:swatch="solid">
      <stop
         style="stop-color:#cadbb8;stop-opacity:1;"
         offset="0"
         id="stop31527" />
    </linearGradient>
  </defs>
  <g
     inkscape:groupmode="layer"
     id="layer3"
     inkscape:label="Layer 3"
     sodipodi:insensitive="true">
    <rect
       style="fill:#f77f34;fill-opacity:1;fill-rule:nonzero;stroke:none;stroke-width:0.767292;stroke-linecap:round;stroke-linejoin:miter;stroke-miterlimit:4.7;stroke-dasharray:none;stroke-opacity:1"
       id="rect23637"
       width="213.22092"
       height="213.07224"
       x="-0.83452415"
       y="-0.6858415"
       inkscape:export-filename="/Users/ernesto/rect23637.png"
       inkscape:export-xdpi="143.79456"
       inkscape:export-ydpi="143.79456" />
  </g>
  <g
     inkscape:groupmode="layer"
     id="layer4"
     inkscape:label="Layer 4" />
  <g
     inkscape:groupmode="layer"
     id="layer2"
     inkscape:label="Layer 2">
    <path
       style="fill:#ffffff;fill-opacity:0;stroke:#ffffff;stroke-width:0.767292;stroke-linecap:round;stroke-linejoin:miter;stroke-miterlimit:4.7;stroke-dasharray:none;stroke-opacity:1"
       d="m 89.329768,123.67868 c -8.255209,-4.92538 -15.487184,-9.22994 -19.071816,-11.37539 -1.531665,-0.91672 -4.296838,1.01309 -2.392557,-1.44758 6.217051,-8.03354 45.392655,-24.038877 45.721835,-24.11791 0.21713,-0.05213 49.44332,23.12577 49.8353,23.4647 0.0838,0.0725 -52.34324,26.26558 -52.56174,26.26043 -0.0595,-0.001 -9.74847,-5.75432 -21.531022,-12.78425 z"
       id="path10624"
       sodipodi:nodetypes="ssssscs" />
    <path
       style="fill:#ff8643;fill-opacity:1;stroke:#ffffff;stroke-width:0.627536;stroke-linecap:round;stroke-linejoin:miter;stroke-miterlimit:4.7;stroke-dasharray:none;stroke-opacity:1"
       d="m 61.80662,39.88037 -1.263732,-0.724914 1.58832,-0.868817 c 3.836699,-2.098688 45.865512,-24.500874 45.966172,-24.500874 0.0615,0 0.6924,0.409403 1.40194,0.909783 0.82854,0.584306 1.19248,0.960765 1.01729,1.052291 -0.15003,0.07838 -10.753366,5.706316 -23.562966,12.506528 C 74.144045,35.054576 63.530013,40.615438 63.366905,40.611832 63.2038,40.608233 62.50167,40.27907 61.80662,39.88037 Z"
       id="path11821" />
    <path
       style="fill:#ffffff;fill-opacity:1;stroke:#ffffff;stroke-width:0.627536;stroke-linecap:round;stroke-linejoin:miter;stroke-miterlimit:4.7;stroke-dasharray:none;stroke-opacity:1"
       d="m 64.694171,174.61919 c 0.0034,-3.99505 0.675238,-51.4381 0.72915,-51.49201 0.03738,-0.0374 0.935209,0.41463 1.99518,1.00447 l 1.92722,1.07244 -0.05591,24.62995 -0.05591,24.62996 -2.131418,0.59152 c -1.172278,0.32534 -2.193917,0.59153 -2.270304,0.59153 -0.07639,0 -0.138494,-0.46254 -0.13801,-1.02786 z"
       id="path11938" />
    <path
       style="fill:#ffffff;fill-opacity:1;stroke:#ffffff;stroke-width:0.627536;stroke-linecap:round;stroke-linejoin:miter;stroke-miterlimit:4.7;stroke-dasharray:none;stroke-opacity:1"
       d="m 154.7124,170.99287 -2.48851,-1.349 -0.0469,-20.63925 -0.0469,-20.63924 2.83823,-1.35618 c 1.56102,-0.7459 2.88004,-1.31436 2.93116,-1.26324 0.086,0.086 -0.57091,46.50572 -0.65904,46.56798 -0.0217,0.0154 -1.15938,-0.57911 -2.52806,-1.32107 z"
       id="path11977" />
  </g>
  <g
     inkscape:label="Layer 1"
     inkscape:groupmode="layer"
     id="layer1">
    <path
       id="path3098"
       style="fill:none;stroke:#ffffff;stroke-width:3.96875;stroke-linecap:round;stroke-linejoin:round;stroke-miterlimit:4;stroke-dasharray:none;stroke-dashoffset:0;stroke-opacity:1"
       d="m 158.68888,174.75778 -7.95362,-4.24889 V 127.56642 M 110.70911,138.17069 166.772,110.2246 m -56.06289,86.92438 V 138.17069 L 64.755192,110.76724 113.59303,84.991729 113.32171,15.871035 63.398586,42.394285 64.755192,110.76724 m -6.972529,48.5106 -0.353146,-120.13941 3.881835,-2.072848 46.920478,-25.054905 5.3612,3.83122 V 84.991729 L 166.772,110.2246 v 60.23332 l -8.08312,4.29986 0.75745,-51.50976 -41.51216,20.07777 v 49.6518 l -7.22506,4.17139 -8.30744,-4.7963 v -50.38349 l -38.460443,-21.43439 -0.706292,57.09372 -5.534099,-3.3721 z m 5.452272,18.35068 7.532167,-2.11532 v -49.88627 m -13.337585,-86.488502 5.969069,3.255857"
       sodipodi:nodetypes="cccccccccccccccccccccccccccccccccccc" />
    <path
       style="fill:#dcfc64;fill-opacity:0;stroke:#ffffff;stroke-width:0;stroke-linecap:round;stroke-linejoin:round;stroke-miterlimit:4;stroke-dasharray:none;stroke-opacity:1"
       d="M 89.329769,123.67869 67.808666,110.84443 90.730216,98.749251 113.65177,86.654072 138.06899,98.236266 c 13.42947,6.370204 24.60723,11.684494 24.83946,11.809534 0.28344,0.15261 -8.20327,4.54008 -25.81767,13.34724 l -26.23991,13.1199 z"
       id="path4662" />
    <path
       style="fill:#ffa35e;fill-opacity:1;stroke-width:3.85768;stroke-miterlimit:4;stroke-dasharray:none;stroke-dashoffset:0"
       d="m 106.4869,192.20014 -1.84847,-1.08013 V 166.2557 c 0,-23.21558 -0.0373,-24.90788 -0.56258,-25.52155 -0.91303,-1.06669 -39.223961,-22.23862 -40.241112,-22.23862 -0.488545,0 -1.136004,0.27375 -1.438796,0.60833 -0.502946,0.55575 -0.577162,2.63286 -0.858604,24.03017 -0.43747,33.25966 -0.354844,30.76387 -1.00206,30.26783 -0.505766,-0.38764 -0.559252,-4.92384 -0.771546,-65.4346 -0.145359,-41.431874 -0.116281,-65.018089 0.08015,-65.018089 0.169545,0 0.561428,0.185119 0.87085,0.411374 0.522242,0.381874 0.608589,2.808224 1.204097,33.835126 0.35283,18.383062 0.708703,33.749149 0.790827,34.146869 0.182538,0.884 -1.74834,-0.32359 23.765496,14.86319 11.669501,6.94612 21.398938,12.79663 21.620968,13.00115 0.31903,0.29386 0.38645,6.00333 0.32147,27.22262 l -0.0822,26.85077 z"
       id="path16045" />
    <path
       style="fill:#ce651c;fill-opacity:0.528226;stroke-width:3.85768;stroke-miterlimit:4;stroke-dasharray:none;stroke-dashoffset:0"
       d="m 113.07529,166.34621 0.0822,-27.0391 25.79828,-12.79077 25.79828,-12.79078 v 27.71445 27.71445 l -1.8064,0.88595 c -0.99352,0.48726 -1.87283,0.8195 -1.95402,0.73831 -0.0812,-0.0812 0.008,-9.5597 0.19902,-21.06335 0.47146,-28.44531 0.48438,-27.22444 -0.29628,-28.0051 -0.35363,-0.35362 -0.92066,-0.64295 -1.26009,-0.64295 -0.72508,0 -42.35588,20.06013 -43.18368,20.80839 -0.52647,0.47589 -0.56258,2.08923 -0.56258,25.13417 v 24.62563 l -1.44845,0.87491 -1.44846,0.8749 z"
       id="path18193" />
    <path
       style="fill:#e57a39;fill-opacity:1;stroke-width:4.51115;stroke-miterlimit:4;stroke-dasharray:none;stroke-dashoffset:0"
       d="m 66.798151,105.80601 c 0.0034,-0.783 -0.271211,-15.012275 -0.610346,-31.620615 C 65.83638,56.97525 65.712431,43.852133 65.899594,43.671537 c 0.389483,-0.37582 44.994926,-24.076805 45.085366,-23.95599 0.0341,0.04562 0.16529,14.462213 0.29143,32.036862 l 0.22933,31.953909 -17.172255,9.022281 C 84.888721,97.690851 74.82811,102.9836 71.976547,104.49026 l -5.184661,2.73938 z"
       id="path20925" />
    <path
       style="fill:#ff7e30;fill-opacity:0.560484;stroke-width:4.51115;stroke-miterlimit:4;stroke-dasharray:none;stroke-dashoffset:0"
       d="M 90.478359,123.5496 C 79.254118,116.85788 69.930453,111.24263 69.759101,111.07128 69.460055,110.77224 112.82393,87.653565 113.68389,87.653565 c 0.4678,0 47.12197,22.066895 47.54832,22.489815 0.14866,0.14746 -11.11841,5.96171 -25.03793,12.92055 l -25.30821,12.65245 z"
       id="path20964" />
  </g>
</svg>
